<svg xmlns="http://www.w3.org/2000/svg" width="128" height="128" viewBox="0 0 128 128" role="img" aria-label="iron-borough tower-building roadside prop">
<rect width="128" height="128" fill="none"/>
<ellipse cx="64" cy="116" rx="42" ry="8" fill="#10151f" opacity="0.35"/>
<rect x="34" y="24" width="60" height="88" fill="#535b60"/>
<rect x="40" y="30" width="48" height="76" fill="#343a40" opacity="0.82"/>
<path d="M34 24 L64 14 L94 24 Z" fill="#f5cf69" opacity="0.45"/>
<rect x="46" y="40" width="12" height="8" fill="#f5cf69" opacity="0.65"/>
<rect x="70" y="40" width="12" height="8" fill="#f5cf69" opacity="0.65"/>
<rect x="46" y="56" width="12" height="8" fill="#f5cf69" opacity="0.65"/>
<rect x="70" y="56" width="12" height="8" fill="#f5cf69" opacity="0.65"/>
<rect x="46" y="72" width="12" height="8" fill="#f5cf69" opacity="0.65"/>
<rect x="70" y="72" width="12" height="8" fill="#f5cf69" opacity="0.65"/>
<rect x="46" y="88" width="12" height="8" fill="#f5cf69" opacity="0.65"/>
<rect x="70" y="88" width="12" height="8" fill="#f5cf69" opacity="0.65"/>
<rect x="48" y="100" width="32" height="8" fill="#f5cf69" opacity="0.6"/>
<rect x="63" y="102" width="28" height="5" fill="#f5cf69" opacity="0.45"/>
</svg>
