<svg xmlns="http://www.w3.org/2000/svg" width="1920" height="1080" viewBox="0 0 1920 1080" role="img" aria-label="results production menu background">
<rect width="1920" height="1080" fill="#223a56"/>
<path d="M0 330 L220 150 L420 330 L690 176 L940 330 L1180 130 L1410 330 L1660 170 L1920 290 L1920 520 L0 520 Z" fill="#8da8bc" opacity="0.62"/>
<path d="M0 462 C260 410 500 478 730 420 C1020 350 1230 450 1460 398 C1670 354 1800 396 1920 360 L1920 650 L0 650 Z" fill="#4e6b7b" opacity="0.82"/>
<rect x="0" y="636" width="1920" height="444" fill="#0b1019" opacity="0.42"/>
<path d="M-120 1080 C260 870 590 790 960 812 C1320 832 1600 902 2040 790 L2040 1080 Z" fill="#172033" opacity="0.72"/>
<path d="M720 1080 L900 642 L1020 642 L1200 1080 Z" fill="#535b60" opacity="0.82"/>
<path d="M926 1080 L955 642 L965 642 L994 1080 Z" fill="#d8f4ff" opacity="0.76"/>
<path d="M100 218 C330 174 540 230 760 188 C980 146 1200 230 1420 188 C1630 148 1780 170 1920 144 L1920 216 C1710 240 1500 222 1270 246 C980 276 790 214 520 260 C330 292 180 260 100 282 Z" fill="#d8f4ff" opacity="0.12"/>
<rect x="112" y="118" width="420" height="16" fill="#d8f4ff" opacity="0.64"/>
<rect x="112" y="154" width="260" height="8" fill="#d8f4ff" opacity="0.28"/>
<rect x="760" y="702" width="400" height="126" fill="#d7dde6" opacity="0.24"/>
<rect x="866" y="610" width="190" height="218" fill="#d7dde6" opacity="0.34"/>
<rect x="880" y="584" width="160" height="24" fill="#d8f4ff" opacity="0.8"/>
<rect x="604" y="670" width="190" height="158" fill="#d7dde6" opacity="0.24"/>
<rect x="1126" y="690" width="190" height="138" fill="#d7dde6" opacity="0.22"/>
</svg>
