<svg xmlns="http://www.w3.org/2000/svg" width="1920" height="1080" viewBox="0 0 1920 1080" role="img" aria-label="VibeGear2 placeholder art">
<rect width="1920" height="1080" fill="#1c2345"/>
<path d="M0 340 L220 160 L420 340 L690 185 L940 340 L1180 140 L1410 340 L1660 180 L1920 300 L1920 520 L0 520 Z" fill="#55608a" opacity="0.6"/>
<path d="M0 470 C260 420 500 486 730 430 C1020 360 1230 460 1460 410 C1670 365 1800 405 1920 370 L1920 650 L0 650 Z" fill="#2e355b" opacity="0.78"/>
<rect x="0" y="640" width="1920" height="440" fill="#0b1019" opacity="0.45"/>
<path d="M760 1080 L910 650 L1010 650 L1160 1080 Z" fill="#535b60" opacity="0.8"/>
<path d="M928 1080 L955 650 L965 650 L992 1080 Z" fill="#ffd85a" opacity="0.75"/>
<rect x="116" y="116" width="480" height="18" fill="#ffd85a" opacity="0.7"/>
<rect x="116" y="156" width="320" height="10" fill="#ffd85a" opacity="0.32"/>
<rect x="1324" y="812" width="360" height="18" fill="#ffd85a" opacity="0.45"/>
<text x="960" y="1000" text-anchor="middle" font-family="monospace" font-size="44" font-weight="700" fill="#ffd85a" opacity="0.82">TITLE PLACEHOLDER</text>
</svg>
