<svg xmlns="http://www.w3.org/2000/svg" width="512" height="256" viewBox="0 0 512 256" role="img" aria-label="VibeGear2 placeholder art">
<rect width="512" height="256" fill="none"/>
<rect x="6" y="8" width="20" height="54" fill="#d7dde6"/>
<rect x="2" y="0" width="28" height="12" fill="#fff275"/>
<rect x="42" y="8" width="20" height="54" fill="#d7dde6"/>
<rect x="38" y="0" width="28" height="12" fill="#fff275"/>
<path d="M96 8 L62 96 L132 96 Z" fill="#1f7a45"/>
<rect x="92" y="72" width="8" height="24" fill="#6b4a2e"/>
<path d="M160 2 L124 96 L198 96 Z" fill="#2f8a52"/>
<rect x="156" y="72" width="8" height="24" fill="#6b4a2e"/>
<path d="M224 12 L190 96 L260 96 Z" fill="#1d6e3b"/>
<rect x="220" y="72" width="8" height="24" fill="#6b4a2e"/>
<rect x="0" y="104" width="14" height="24" fill="#c4cad3"/>
<rect x="34" y="110" width="42" height="18" fill="#8e9299"/>
<rect x="82" y="106" width="42" height="22" fill="#7b8087"/>
<rect x="260" y="0" width="10" height="128" fill="#d7dde6"/>
<rect x="248" y="0" width="34" height="10" fill="#fff275"/>
<rect x="310" y="42" width="76" height="58" fill="#45515c"/>
<rect x="322" y="54" width="14" height="12" fill="#7ea0b8"/>
<rect x="350" y="54" width="14" height="12" fill="#7ea0b8"/>
<rect x="328" y="76" width="14" height="12" fill="#7ea0b8"/>
<rect x="358" y="76" width="14" height="12" fill="#7ea0b8"/>
<rect x="410" y="72" width="88" height="18" fill="#bdc3ca"/>
<rect x="418" y="88" width="12" height="40" fill="#bdc3ca"/>
<rect x="478" y="88" width="12" height="40" fill="#bdc3ca"/>
</svg>
